<?xml version="1.0" encoding="UTF-8" standalone="no"?>
<!-- Svg Vector Icons : http://www.sfont.cn -->

<svg
   xmlns:dc="http://purl.org/dc/elements/1.1/"
   xmlns:cc="http://creativecommons.org/ns#"
   xmlns:rdf="http://www.w3.org/1999/02/22-rdf-syntax-ns#"
   xmlns:svg="http://www.w3.org/2000/svg"
   xmlns="http://www.w3.org/2000/svg"
   xmlns:sodipodi="http://sodipodi.sourceforge.net/DTD/sodipodi-0.dtd"
   xmlns:inkscape="http://www.inkscape.org/namespaces/inkscape"
   version="1.1"
   x="0px"
   y="0px"
   viewBox="0 0 980 980"
   enable-background="new 0 0 1000 1000"
   xml:space="preserve"
   id="svg842"
   sodipodi:docname="setting_sym.svg"
   inkscape:version="0.92.3 (2405546, 2018-03-11)"
   width="980"
   height="980"><defs
   id="defs846" /><sodipodi:namedview
   pagecolor="#ffffff"
   bordercolor="#666666"
   borderopacity="1"
   objecttolerance="10"
   gridtolerance="10"
   guidetolerance="10"
   inkscape:pageopacity="0"
   inkscape:pageshadow="2"
   inkscape:window-width="1920"
   inkscape:window-height="1004"
   id="namedview844"
   showgrid="false"
   inkscape:zoom="0.808"
   inkscape:cx="490"
   inkscape:cy="490"
   inkscape:window-x="0"
   inkscape:window-y="0"
   inkscape:window-maximized="1"
   inkscape:current-layer="svg842"
   inkscape:snap-nodes="false"
   inkscape:snap-object-midpoints="true"><inkscape:grid
     type="xygrid"
     id="grid848" /></sodipodi:namedview>
<metadata
   id="metadata834"> Svg Vector Icons : http://www.sfont.cn <rdf:RDF><cc:Work
     rdf:about=""><dc:format>image/svg+xml</dc:format><dc:type
       rdf:resource="http://purl.org/dc/dcmitype/StillImage" /></cc:Work></rdf:RDF></metadata>
<g
   id="g840"
   style="fill:#666666"
   transform="matrix(0.94897959,0,0,0.95287704,15.510205,13.56148)"><g
     transform="matrix(0.1,0,0,-0.1,0,512)"
     id="g838"
     style="fill:#666666"><path
       d="m 4517.7,4987.5 c -28.7,-19.1 -65.1,-59.3 -82.3,-91.9 -15.3,-30.6 -76.6,-346.4 -135.9,-698.6 -57.4,-352.2 -107.2,-641.2 -109.1,-641.2 -1.9,-1.9 -76.6,-23 -166.5,-45.9 -216.3,-59.3 -405.8,-135.9 -671.8,-271.8 l -222,-114.8 -549.3,392.4 c -488.1,350.3 -557,394.3 -624,394.3 -107.2,0 -201,-78.5 -618.2,-530.2 -112.9,-122.5 -128.2,-147.4 -128.2,-212.5 0,-86.1 -15.3,-63.2 457.5,-721.6 181.8,-250.7 325.4,-461.3 323.5,-467 -3.8,-7.7 -59.3,-114.8 -122.5,-241.2 C 1748,1502 1637,1222.5 1591.1,1040.7 1573.9,971.8 1552.8,933.5 1526,922 1504.9,914.3 1214,862.7 877.1,809.1 542.1,753.6 247.4,700 220.6,688.5 195.7,677 159.4,640.6 138.3,608.1 103.9,550.7 100,510.5 100,110.4 v -434.5 l 72.7,-70.8 70.8,-70.8 555.1,-91.9 c 306.2,-51.7 602.9,-101.4 662.3,-111 l 107.2,-19.1 24.9,-107.2 c 38.3,-174.2 147.4,-455.5 281.4,-713.9 l 122.5,-241.2 -348.4,-486.2 c -461.3,-641.2 -438.3,-604.9 -438.3,-685.3 0,-91.9 23,-124.4 294.8,-402 287.1,-292.8 357.9,-346.4 451.7,-346.4 82.3,0 63.2,-11.5 717.8,457.5 250.7,181.8 461.3,325.4 467,323.5 7.7,-3.8 114.8,-59.3 241.2,-122.5 235.4,-120.6 514.9,-231.6 696.7,-277.5 68.9,-17.2 107.2,-38.3 118.7,-65.1 7.7,-21 59.3,-313.9 112.9,-650.8 55.5,-336.9 111,-635.5 126.3,-664.2 53.6,-101.4 99.5,-111 574.2,-111 h 432.6 l 70.8,72.7 70.8,70.8 91.9,555.1 c 51.7,306.3 101.4,602.9 111,662.3 l 19.1,107.2 107.2,24.9 c 172.3,36.4 453.6,147.4 702.5,275.6 126.3,63.2 233.5,118.7 241.2,122.5 5.8,1.9 245,-162.7 532.1,-369.4 287.1,-204.8 537.8,-382.8 557,-392.4 67,-36.4 162.7,-21 241.2,36.4 134,97.6 578.1,566.6 593.4,624 7.7,30.6 5.8,86.1 -5.7,122.5 -9.6,38.3 -187.6,304.3 -394.3,593.4 -208.6,289 -375.2,530.2 -373.2,535.9 3.8,7.6 59.3,114.8 122.5,241.2 120.4,235.3 231.4,514.8 277.3,696.6 17.2,68.9 38.3,107.2 65.1,118.7 21,7.7 313.9,59.3 650.8,112.9 336.9,55.5 635.5,111 662.3,126.3 99.5,51.7 112.9,116.8 112.9,572.4 0,459.4 -7.7,495.7 -122.5,555.1 -32.5,15.3 -348.3,76.6 -698.6,135.9 -352.2,57.4 -641.2,107.2 -643.1,109.1 -1.9,1.9 -23,76.6 -45.9,166.5 -59.3,216.3 -135.9,405.8 -271.8,668 -111,214.4 -112.9,220.1 -80.4,268 17.2,26.8 174.2,248.8 348.4,490 423,587.6 403.9,558.9 403.9,641.2 0,95.7 -55.5,166.5 -367.5,472.8 -271.8,266 -317.7,292.8 -434.5,260.3 -38.3,-9.6 -283.3,-172.3 -547.4,-361.8 -262.2,-189.5 -501.5,-359.8 -528.3,-377.1 -47.9,-32.5 -53.6,-30.6 -268,82.3 -237.4,122.5 -491.9,225.9 -687.2,277.5 -68.9,19.1 -132.1,40.2 -139.7,47.9 -7.7,7.7 -63.2,296.7 -120.6,643.1 -57.4,346.5 -114.8,654.6 -126.3,685.2 -11.5,28.7 -47.9,70.8 -80.4,90 -53.6,32.5 -101.4,36.4 -490,36.4 -369.5,0 -438.4,-5.7 -482.4,-32.5 z m 893.8,-2836.7 c 851.8,-176.1 1515.9,-874.7 1638.4,-1722.7 30.6,-218.2 13.4,-618.2 -38.3,-809.6 -197.1,-752.2 -758,-1313 -1510.2,-1510.2 -191.4,-51.7 -616.3,-70.8 -821.1,-36.4 -872.8,139.7 -1567.6,821.1 -1718.8,1682.5 -155,882.4 268,1762.8 1052.7,2185.8 183.8,99.5 417.3,183.8 599.1,216.3 220.2,40.3 591.5,36.4 798.2,-5.7 z"
       id="path836"
       style="fill:#666666"
       inkscape:connector-curvature="0" /></g></g>
</svg>